<?xml version="1.0" encoding="UTF-8" standalone="no"?>
<!-- Created with Inkscape (http://www.inkscape.org/) -->

<svg
   width="255.99998"
   height="255.99998"
   viewBox="0 0 67.73333 67.73333"
   version="1.1"
   id="svg1"
   inkscape:version="1.3.2 (091e20e, 2023-11-25, custom)"
   sodipodi:docname="website-check-and-crawl.svg"
   xml:space="preserve"
   inkscape:export-filename="website-check-and-crawl.png"
   inkscape:export-xdpi="96"
   inkscape:export-ydpi="96"
   xmlns:inkscape="http://www.inkscape.org/namespaces/inkscape"
   xmlns:sodipodi="http://sodipodi.sourceforge.net/DTD/sodipodi-0.dtd"
   xmlns="http://www.w3.org/2000/svg"
   xmlns:svg="http://www.w3.org/2000/svg"><sodipodi:namedview
     id="namedview1"
     pagecolor="#ffffff"
     bordercolor="#666666"
     borderopacity="1.0"
     inkscape:showpageshadow="2"
     inkscape:pageopacity="0.0"
     inkscape:pagecheckerboard="0"
     inkscape:deskcolor="#d1d1d1"
     inkscape:document-units="mm"
     inkscape:zoom="4.4775295"
     inkscape:cx="110.6637"
     inkscape:cy="153.99117"
     inkscape:window-width="3456"
     inkscape:window-height="2054"
     inkscape:window-x="-11"
     inkscape:window-y="-11"
     inkscape:window-maximized="1"
     inkscape:current-layer="layer1" /><defs
     id="defs1" /><g
     inkscape:label="Layer 1"
     inkscape:groupmode="layer"
     id="layer1"><rect
       style="font-variation-settings:'wght' 400;display:inline;fill:#000000;fill-opacity:0;stroke:#e89f86;stroke-width:0.264999;stroke-opacity:0"
       id="rect503"
       width="67.73333"
       height="67.73333"
       x="0"
       y="0"
       inkscape:label="border" /><g
       id="g2"
       inkscape:label="background"><path
         style="display:inline;fill:#f5f3f5;stroke-width:0.458275"
         d="M 4.1939942,38.064698 C 3.6213977,37.781269 3.186018,37.27213 2.9735159,36.637442 2.7830246,36.068484 2.7810999,23.30652 2.9712245,22.621019 c 0.169493,-0.610533 0.9939025,-1.452008 1.56204,-1.594376 0.2351959,-0.05893 6.5112645,-0.08774 14.0951405,-0.06469 l 13.671159,0.04156 v 3.123865 c 0,2.969875 -0.01196,3.134684 -0.242505,3.343328 -0.198855,0.17996 -0.242506,0.186729 -0.242506,0.03758 0,-0.730279 -1.812428,-0.911009 -2.183466,-0.217722 -0.07353,0.137396 -0.12032,2.014472 -0.12032,4.826935 0,5.214025 -0.02612,5.068504 0.933617,5.197234 1.345587,0.180478 1.491424,-0.04418 1.491424,-2.297618 0,-1.637985 0.01897,-1.80822 0.178022,-1.597927 0.141868,0.187567 0.178805,0.709373 0.181875,2.569466 l 0.0037,2.334101 -13.792414,-9.7e-5 -13.7924091,-9.6e-5 z"
         id="path191" /><path
         style="display:inline;fill:#f0eef4;stroke-width:0.458275"
         d="m 32.299747,36.018963 c 0,-1.267085 0.02594,-2.303791 0.05769,-2.303791 0.03171,0 0.236346,0.108923 0.454696,0.242052 0.921444,0.561804 2.353123,0.178269 3.041269,-0.814726 1.199875,-1.731418 0.873294,-4.86289 -0.615793,-5.904632 -0.645902,-0.45186 -1.819013,-0.579952 -2.427878,-0.265094 -0.207181,0.107135 -0.406682,0.194794 -0.44334,0.194794 -0.03666,0 -0.06665,-1.391364 -0.06665,-3.091922 v -3.091928 h 7.335743 7.335743 v 8.669516 8.669517 H 39.63549 32.299747 Z"
         id="path189" /><path
         style="display:inline;fill:#ecebf4;stroke-width:0.458275"
         d="m 52.457882,38.353091 -5.486649,-0.03281 V 36.31206 34.303839 l 0.319482,0.251304 c 0.39029,0.307003 0.664463,0.317704 1.002033,0.03909 0.315133,-0.260076 5.589847,-11.005748 5.589847,-11.38766 0,-0.426893 -0.467284,-0.785411 -0.968573,-0.743135 -0.492078,0.04147 -0.271377,-0.357482 -3.876421,7.007898 l -2.047496,4.183195 -0.0094,-6.335416 -0.0094,-6.335415 h 5.643045 c 6.40132,0 6.266188,-0.01934 6.936709,0.99387 l 0.333578,0.504071 v 7.181776 7.181781 l -0.375281,0.465947 c -0.206407,0.256276 -0.588348,0.58711 -0.848763,0.735192 l -0.47348,0.269237 2.303786,0.03675 2.303785,0.03675 -2.425036,-0.0014 c -1.333773,-9.16e-4 -4.894035,-0.01636 -7.911694,-0.03437 z"
         id="path188" /><path
         style="display:inline;fill:#d0cdea;stroke-width:0.458275"
         d="m 58.660522,38.051945 c 0.260414,-0.151158 0.642355,-0.484507 0.848762,-0.740779 l 0.375281,-0.465951 v -7.181777 -7.181781 l -0.332923,-0.503085 c -0.648707,-0.980255 -0.17908,-0.926458 -8.700344,-0.996661 l -7.578249,-0.06243 9.700154,-0.02782 c 10.516659,-0.03015 10.326965,-0.04134 11.096056,0.653482 0.876625,0.791978 0.859165,0.616953 0.82083,8.229353 -0.03882,7.703366 0.0037,7.375104 -1.055362,8.123884 l -0.514565,0.363756 -2.56656,0.03231 -2.566561,0.03231 z"
         id="path187" /></g><g
       id="g1"
       inkscape:label="shadows"
       style="display:inline"><path
         style="fill:#f5f3f5;stroke-width:0.458275"
         d="m 32.042756,31.320446 c -0.151996,-0.390656 -0.06514,-1.696713 0.125512,-1.887364 0.09447,-0.09447 0.131479,0.199583 0.131479,1.044665 0,1.238759 -0.04523,1.387011 -0.256991,0.842699 z"
         id="path195" /><path
         style="fill:#ecebf4;stroke-width:0.458275"
         d="m 64.116865,21.559663 -0.230985,-0.272816 0.272816,0.230984 c 0.256382,0.217067 0.32802,0.314652 0.230984,0.314652 -0.023,0 -0.145772,-0.122767 -0.272815,-0.27282 z"
         id="path211" /><path
         style="fill:#ecebf4;stroke-width:0.458275"
         d="m 37.877336,27.606796 c 0,-0.02516 0.09549,-0.120664 0.212191,-0.212191 0.19231,-0.150823 0.1966,-0.146533 0.04578,0.04578 -0.158402,0.201975 -0.257972,0.266207 -0.257972,0.166413 z"
         id="path210" /><path
         style="fill:#ecebf4;stroke-width:0.458275"
         d="m 45.80782,27.986018 -0.230985,-0.272816 0.272816,0.230985 c 0.256382,0.217066 0.328019,0.314647 0.230984,0.314647 -0.023,0 -0.145777,-0.122767 -0.272815,-0.272816 z"
         id="path209" /><path
         style="fill:#ecebf4;stroke-width:0.458275"
         d="m 13.141935,29.304325 c 0,-0.02516 0.09549,-0.120664 0.212191,-0.212191 0.192315,-0.150823 0.196605,-0.146533 0.04578,0.04578 -0.158399,0.201975 -0.257973,0.266203 -0.257973,0.166409 z"
         id="path208" /><path
         style="fill:#ecebf4;stroke-width:0.458275"
         d="m 45.819341,29.713858 c 0.120705,-0.133377 0.246744,-0.242501 0.280088,-0.242501 0.03336,0 -0.03813,0.109124 -0.158838,0.242501 -0.120705,0.133376 -0.246745,0.242505 -0.280089,0.242505 -0.03336,0 0.03813,-0.109129 0.158839,-0.242505 z"
         id="path207" /><path
         style="fill:#ecebf4;stroke-width:0.458275"
         d="m 42.989065,31.896393 c 0,-0.166721 0.0275,-0.234926 0.06116,-0.151565 0.03364,0.08336 0.03364,0.21977 0,0.30313 -0.03364,0.08336 -0.06116,0.01517 -0.06116,-0.151565 z"
         id="path206" /><path
         style="fill:#ecebf4;stroke-width:0.458275"
         d="m 44.061186,32.214372 c 0,-0.02516 0.09549,-0.120664 0.212191,-0.212191 0.19231,-0.150823 0.1966,-0.146533 0.04578,0.04578 -0.158403,0.201975 -0.257973,0.266203 -0.257973,0.166409 z"
         id="path205" /><path
         style="fill:#ecebf4;stroke-width:0.458275"
         d="m 37.376863,33.381731 c -0.150823,-0.192315 -0.146533,-0.1966 0.04578,-0.04578 0.201975,0.158398 0.266207,0.257967 0.166413,0.257967 -0.02516,0 -0.120664,-0.09549 -0.21219,-0.21219 z"
         id="path204" /><path
         style="fill:#ecebf4;stroke-width:0.458275"
         d="m 35.331045,33.669395 c 0,-0.02516 0.09549,-0.120664 0.21219,-0.21219 0.192316,-0.150823 0.1966,-0.146534 0.04578,0.04578 -0.158403,0.201976 -0.257972,0.266203 -0.257972,0.166409 z"
         id="path203" /><path
         style="fill:#ecebf4;stroke-width:0.458275"
         d="m 45.758715,33.911896 c 0,-0.02516 0.09549,-0.120664 0.212191,-0.21219 0.19231,-0.150819 0.1966,-0.146529 0.04578,0.04578 -0.158399,0.201976 -0.257968,0.266208 -0.257968,0.166414 z"
         id="path202" /><path
         style="fill:#d0cdea;stroke-width:0.458275"
         d="m 52.306321,22.756719 c 0,-0.02516 0.09548,-0.120664 0.212191,-0.212191 0.192311,-0.150823 0.1966,-0.146534 0.04578,0.04578 -0.158399,0.201975 -0.257968,0.266207 -0.257968,0.166409 z"
         id="path240" /><path
         style="fill:#d0cdea;stroke-width:0.458275"
         d="m 26.873719,26.836737 c 0.250086,-0.02617 0.659312,-0.02617 0.909392,0 0.250081,0.02617 0.04546,0.04756 -0.454696,0.04756 -0.500161,0 -0.704776,-0.0214 -0.454696,-0.04756 z"
         id="path239" /><path
         style="fill:#d0cdea;stroke-width:0.458275"
         d="m 20.954051,26.764403 c -0.03391,-0.08836 -0.04354,-0.67492 -0.02136,-1.303458 l 0.04028,-1.142796 0.02516,1.237517 0.02516,1.237522 0.879077,0.04184 0.879078,0.04184 -0.882886,0.02411 c -0.638867,0.01741 -0.899919,-0.0203 -0.944532,-0.136566 z"
         id="path238" /><path
         style="fill:#d0cdea;stroke-width:0.458275"
         d="m 40.150812,28.542268 c 0.08336,-0.03364 0.219765,-0.03364 0.30313,0 0.08336,0.03364 0.01517,0.06116 -0.151565,0.06116 -0.166725,0 -0.234926,-0.0275 -0.151565,-0.06116 z"
         id="path237" /><path
         style="fill:#d0cdea;stroke-width:0.458275"
         d="m 26.937552,28.533652 c 0.28519,-0.02562 0.721697,-0.02525 0.970018,9.17e-4 0.248316,0.02603 0.01498,0.04701 -0.51853,0.04657 -0.533505,-4.4e-4 -0.736677,-0.02177 -0.451488,-0.04737 z"
         id="path236" /><path
         style="fill:#d0cdea;stroke-width:0.458275"
         d="m 43.837828,28.865095 c 0,-0.16672 0.0275,-0.234925 0.06116,-0.151565 0.03364,0.08336 0.03364,0.21977 0,0.303131 -0.03364,0.08336 -0.06116,0.01517 -0.06116,-0.151566 z"
         id="path235" /><path
         style="fill:#d0cdea;stroke-width:0.458275"
         d="m 20.956846,30.0475 0.0059,-1.485535 0.909388,-0.0077 0.909392,-0.0077 -0.875388,0.04299 -0.875384,0.04299 -0.03987,1.450188 -0.03982,1.450185 z"
         id="path234" /><path
         style="fill:#d0cdea;stroke-width:0.458275"
         d="m 27.117893,32.05189 c 0.184309,-0.02786 0.457125,-0.02713 0.606261,0.0018 0.149132,0.02878 -0.0018,0.05158 -0.335114,0.05067 -0.333441,-9.17e-4 -0.455456,-0.02447 -0.271147,-0.05233 z"
         id="path233" /><path
         style="fill:#d0cdea;stroke-width:0.458275"
         d="m 21.661554,32.05189 c 0.18431,-0.02786 0.457125,-0.02713 0.606262,0.0018 0.149132,0.02878 -0.0018,0.05158 -0.335114,0.05067 -0.333441,-9.17e-4 -0.455457,-0.02447 -0.271148,-0.05233 z"
         id="path232" /><path
         style="fill:#d0cdea;stroke-width:0.458275"
         d="m 39.908306,32.422351 c 0.08336,-0.03364 0.219771,-0.03364 0.303131,0 0.08336,0.03364 0.01517,0.06116 -0.151565,0.06116 -0.166721,0 -0.234926,-0.0275 -0.151566,-0.06116 z"
         id="path231" /><path
         style="fill:#d0cdea;stroke-width:0.458275"
         d="m 37.159398,32.79568 c 0.0058,-0.141254 0.03455,-0.169983 0.07325,-0.07325 0.03501,0.08753 0.0307,0.192109 -0.0096,0.232396 -0.04028,0.04028 -0.06895,-0.03135 -0.06368,-0.159141 z"
         id="path230" /><path
         style="fill:#d0cdea;stroke-width:0.458275"
         d="m 43.837828,32.987661 c 0,-0.166721 0.0275,-0.234926 0.06116,-0.151566 0.03364,0.08336 0.03364,0.219771 0,0.303131 -0.03364,0.08336 -0.06116,0.01517 -0.06116,-0.151565 z"
         id="path229" /><path
         style="fill:#d0cdea;stroke-width:0.458275"
         d="m 15.009517,31.532637 c 0,-1.033672 0.01861,-1.456536 0.04134,-0.939702 0.02273,0.516838 0.02273,1.362571 0,1.879404 -0.02273,0.516838 -0.04134,0.09397 -0.04134,-0.939702 z"
         id="path228" /><path
         style="fill:#d0cdea;stroke-width:0.458275"
         d="m 42.303032,33.472672 c 0.120705,-0.133381 0.246745,-0.242506 0.280089,-0.242506 0.03336,0 -0.03813,0.109125 -0.158838,0.242506 -0.120701,0.133376 -0.246745,0.2425 -0.280089,0.2425 -0.03336,0 0.03813,-0.109124 0.158838,-0.2425 z"
         id="path227" /><path
         style="fill:#d0cdea;stroke-width:0.458275"
         d="m 50.835831,34.472999 c -0.150823,-0.192315 -0.146533,-0.1966 0.04578,-0.04578 0.201975,0.158399 0.266207,0.257968 0.166413,0.257968 -0.02516,0 -0.120664,-0.09549 -0.21219,-0.212191 z"
         id="path226" /><path
         style="fill:#d0cdea;stroke-width:0.458275"
         d="m 51.427244,34.726137 c 0.08336,-0.03364 0.219766,-0.03364 0.303126,0 0.08337,0.03364 0.01517,0.06116 -0.15156,0.06116 -0.166725,0 -0.234926,-0.0275 -0.151566,-0.06116 z"
         id="path225" /><path
         style="fill:#d0cdea;stroke-width:0.458275"
         d="m 47.66843,34.726137 c 0.08336,-0.03364 0.219771,-0.03364 0.303131,0 0.08336,0.03364 0.01517,0.06116 -0.151565,0.06116 -0.166721,0 -0.234926,-0.0275 -0.151566,-0.06116 z"
         id="path224" /><path
         style="fill:#d0cdea;stroke-width:0.458275"
         d="m 29.565957,32.078273 c -3.6e-5,-2.534165 0.01604,-3.588102 0.03575,-2.342084 0.01971,1.246023 0.01971,3.319434 6.4e-5,4.607576 -0.01966,1.288143 -0.03574,0.268673 -0.03579,-2.265492 z"
         id="path223" /><path
         style="fill:#a39aa4;stroke-width:0.458275"
         d="m 53.780487,23.287507 c 0,-0.166726 0.0275,-0.234926 0.06116,-0.151566 0.03364,0.08336 0.03364,0.219771 0,0.303131 -0.03364,0.08336 -0.06116,0.01517 -0.06116,-0.151565 z"
         id="path376" /><path
         style="fill:#a39aa4;stroke-width:0.458275"
         d="m 19.424306,23.810935 c 0.08753,-0.03501 0.192109,-0.03071 0.232396,0.0096 0.04028,0.04028 -0.03135,0.06895 -0.159141,0.06369 -0.141254,-0.0058 -0.169984,-0.03455 -0.07325,-0.07326 z"
         id="path375" /><path
         style="fill:#a39aa4;stroke-width:0.458275"
         d="m 40.885899,26.842214 c 0.08753,-0.03501 0.192109,-0.0307 0.2324,0.0096 0.04028,0.04028 -0.03135,0.06895 -0.15914,0.06368 -0.141255,-0.0058 -0.169984,-0.03455 -0.07326,-0.07326 z"
         id="path374" /><path
         style="fill:#a39aa4;stroke-width:0.458275"
         d="m 39.55213,26.842214 c 0.08753,-0.03501 0.192109,-0.0307 0.232401,0.0096 0.04028,0.04028 -0.03135,0.06895 -0.159146,0.06368 -0.141249,-0.0058 -0.169983,-0.03455 -0.07326,-0.07326 z"
         id="path373" /><path
         style="fill:#a39aa4;stroke-width:0.458275"
         d="m 26.403259,25.71252 c 0,-0.700231 0.02003,-0.986685 0.04454,-0.636572 0.02447,0.350118 0.02447,0.92303 0,1.273148 -0.02447,0.350113 -0.04454,0.06366 -0.04454,-0.636576 z"
         id="path372" /><path
         style="fill:#a39aa4;stroke-width:0.458275"
         d="m 13.323816,27.410049 c 0.120705,-0.133377 0.246744,-0.242506 0.280088,-0.242506 0.03336,0 -0.03813,0.109129 -0.158838,0.242506 -0.120705,0.133376 -0.246744,0.242505 -0.280088,0.242505 -0.03336,0 0.03813,-0.109129 0.158838,-0.242505 z"
         id="path371" /><path
         style="fill:#a39aa4;stroke-width:0.458275"
         d="m 16.343592,27.500989 -0.230984,-0.27282 0.27282,0.230984 c 0.150049,0.127043 0.272816,0.24981 0.272816,0.27282 0,0.09703 -0.09758,0.02539 -0.314652,-0.230984 z"
         id="path370" /><path
         style="fill:#a39aa4;stroke-width:0.458275"
         d="m 31.693486,27.652554 c 0,-0.133381 0.0209,-0.242505 0.04648,-0.242505 0.02557,0 0.07502,0.109124 0.109903,0.242505 0.03487,0.133377 0.01398,0.242501 -0.04649,0.242501 -0.06044,0 -0.109899,-0.109124 -0.109899,-0.242501 z"
         id="path369" /><path
         style="fill:#a39aa4;stroke-width:0.458275"
         d="m 12.949973,25.651895 c 1.19e-4,-1.267081 0.0181,-1.768961 0.03992,-1.115282 0.02186,0.653679 0.02177,1.69038 -2.11e-4,2.303786 -0.02195,0.613406 -0.03982,0.07858 -0.03973,-1.188504 z"
         id="path368" /><path
         style="fill:#a39aa4;stroke-width:0.458275"
         d="m 42.74656,27.895055 c 0,-0.16672 0.0275,-0.234925 0.06116,-0.151565 0.03364,0.08336 0.03364,0.21977 0,0.303131 -0.03364,0.08336 -0.06116,0.01517 -0.06116,-0.151566 z"
         id="path367" /><path
         style="fill:#a39aa4;stroke-width:0.458275"
         d="m 44.061186,28.213034 c 0,-0.02516 0.09549,-0.120664 0.212191,-0.212191 0.19231,-0.150823 0.1966,-0.146533 0.04578,0.04578 -0.158403,0.201976 -0.257973,0.266203 -0.257973,0.166409 z"
         id="path366" /><path
         style="fill:#a39aa4;stroke-width:0.458275"
         d="m 46.141613,28.865072 c 0,-0.16672 0.02754,-0.234925 0.06116,-0.151565 0.03364,0.08336 0.03364,0.219771 0,0.303131 -0.03364,0.08336 -0.06116,0.01517 -0.06116,-0.151566 z"
         id="path365" /><path
         style="fill:#a39aa4;stroke-width:0.458275"
         d="m 33.739304,29.137888 c -0.150823,-0.19231 -0.146533,-0.1966 0.04578,-0.04578 0.116704,0.09153 0.21219,0.187012 0.21219,0.21219 0,0.09979 -0.09957,0.03556 -0.257967,-0.166409 z"
         id="path364" /><path
         style="fill:#a39aa4;stroke-width:0.458275"
         d="m 32.057242,29.304302 c 0,-0.02516 0.09549,-0.120664 0.21219,-0.212191 0.192316,-0.150823 0.1966,-0.146533 0.04578,0.04578 -0.158403,0.201975 -0.257972,0.266203 -0.257972,0.166409 z"
         id="path363" /><path
         style="fill:#a39aa4;stroke-width:0.458275"
         d="m 37.415968,29.168203 c 0.0023,-0.200064 0.02965,-0.267234 0.06039,-0.14926 0.03075,0.117978 0.02873,0.281665 -0.0046,0.363756 -0.03323,0.0821 -0.05837,-0.01444 -0.0559,-0.214496 z"
         id="path362" /><path
         style="fill:#a39aa4;stroke-width:0.458275"
         d="m 44.16697,29.622895 c -0.150818,-0.192311 -0.146534,-0.196601 0.04578,-0.04578 0.116704,0.09153 0.21219,0.187013 0.21219,0.21219 0,0.09979 -0.09957,0.03556 -0.257972,-0.166408 z"
         id="path361" /><path
         style="fill:#a39aa4;stroke-width:0.458275"
         d="m 37.92644,30.411032 -0.23098,-0.272816 0.272816,0.230984 c 0.256378,0.217067 0.328015,0.314652 0.230985,0.314652 -0.02301,0 -0.145778,-0.122772 -0.272821,-0.27282 z"
         id="path360" /><path
         style="fill:#a39aa4;stroke-width:0.458275"
         d="m 34.157334,30.441369 c 0,-0.433473 0.022,-0.610807 0.04891,-0.394066 0.0269,0.216737 0.0269,0.5714 0,0.788137 -0.0269,0.216737 -0.04891,0.03941 -0.04891,-0.394071 z"
         id="path359" /><path
         style="fill:#a39aa4;stroke-width:0.458275"
         d="m 36.463878,30.501995 c 4.4e-4,-0.533506 0.02177,-0.736678 0.04737,-0.451489 0.02562,0.28519 0.02525,0.721697 -9.17e-4,0.970018 -0.02603,0.248316 -0.04701,0.01498 -0.04657,-0.518529 z"
         id="path358" /><path
         style="fill:#a39aa4;stroke-width:0.458275"
         d="m 26.406242,30.138239 c 1.88e-4,-0.93364 0.0192,-1.299554 0.0423,-0.813145 0.02305,0.486413 0.02291,1.250298 -3.44e-4,1.697529 -0.02328,0.44723 -0.04211,0.04926 -0.04193,-0.884384 z"
         id="path357" /><path
         style="fill:#a39aa4;stroke-width:0.458275"
         d="m 44.879638,31.816089 c 0.08336,-0.03364 0.219766,-0.03364 0.303131,0 0.08336,0.03364 0.01517,0.06116 -0.151565,0.06116 -0.166726,0 -0.234926,-0.02754 -0.151566,-0.06116 z"
         id="path356" /><path
         style="fill:#a39aa4;stroke-width:0.458275"
         d="m 37.847021,31.816089 c 0.08337,-0.03364 0.219771,-0.03364 0.303131,0 0.08336,0.03364 0.01517,0.06116 -0.151565,0.06116 -0.166721,0 -0.234926,-0.02754 -0.151566,-0.06116 z"
         id="path355" /><path
         style="fill:#a39aa4;stroke-width:0.458275"
         d="m 33.633516,31.971866 c 0,-0.02516 0.09549,-0.120664 0.21219,-0.21219 0.192316,-0.150823 0.196605,-0.146534 0.04578,0.04578 -0.158398,0.201976 -0.257972,0.266208 -0.257972,0.166414 z"
         id="path354" /><path
         style="fill:#a39aa4;stroke-width:0.458275"
         d="m 24.108707,28.198209 c 5e-5,-2.134036 0.01654,-2.989971 0.03666,-1.90208 0.02012,1.087885 0.02007,2.833914 -8.7e-5,3.880059 -0.02016,1.046146 -0.03662,0.156057 -0.03657,-1.977979 z"
         id="path353" /><path
         style="fill:#a39aa4;stroke-width:0.458275"
         d="m 18.652369,28.198209 c 5e-5,-2.134036 0.01654,-2.989971 0.03666,-1.90208 0.02012,1.087885 0.02007,2.833914 -9.2e-5,3.880059 -0.02016,1.046146 -0.03662,0.156057 -0.03657,-1.977979 z"
         id="path352" /><path
         style="fill:#a39aa4;stroke-width:0.458275"
         d="m 39.55213,32.419642 c 0.08753,-0.03501 0.192109,-0.0307 0.232401,0.0096 0.04028,0.04028 -0.03135,0.06895 -0.159146,0.06368 -0.141249,-0.0058 -0.169983,-0.03455 -0.07326,-0.07326 z"
         id="path351" /><path
         style="fill:#a39aa4;stroke-width:0.458275"
         d="m 46.141613,32.987477 c 0,-0.16672 0.02754,-0.234925 0.06116,-0.151565 0.03364,0.08336 0.03364,0.21977 0,0.303131 -0.03364,0.08336 -0.06116,0.01517 -0.06116,-0.151566 z"
         id="path350" /><path
         style="fill:#a39aa4;stroke-width:0.458275"
         d="m 12.948236,31.532454 c 0,-1.033672 0.01861,-1.456536 0.04134,-0.939703 0.02273,0.516838 0.02273,1.362572 0,1.879405 -0.02273,0.516838 -0.04134,0.09397 -0.04134,-0.939702 z"
         id="path349" /><path
         style="fill:#a39aa4;stroke-width:0.458275"
         d="m 10.651132,28.440531 c 2.8e-5,-2.800923 0.01595,-3.929439 0.03533,-2.507819 0.01943,1.421624 0.01938,3.713284 -5e-5,5.092587 -0.01943,1.379298 -0.03533,0.21615 -0.03529,-2.584768 z"
         id="path348" /><path
         style="fill:#a39aa4;stroke-width:0.458275"
         d="m 24.709978,33.320909 -0.230985,-0.272816 0.272821,0.230985 c 0.256377,0.217066 0.328015,0.314647 0.23098,0.314647 -0.02301,0 -0.145773,-0.122767 -0.272816,-0.272816 z"
         id="path347" /><path
         style="fill:#a39aa4;stroke-width:0.458275"
         d="m 35.452295,33.411849 c 0.15663,-0.16672 0.312058,-0.30313 0.345402,-0.30313 0.03336,0 -0.06752,0.13641 -0.224147,0.30313 -0.156629,0.166721 -0.312058,0.303131 -0.345402,0.303131 -0.03336,0 0.06752,-0.13641 0.224147,-0.303131 z"
         id="path346" /><path
         style="fill:#a39aa4;stroke-width:0.458275"
         d="m 32.290568,33.502789 -0.293951,-0.333445 0.333441,0.293956 c 0.311654,0.27474 0.389048,0.37293 0.293956,0.37293 -0.02172,0 -0.171771,-0.150048 -0.333446,-0.333441 z"
         id="path345" /><path
         style="fill:#a39aa4;stroke-width:0.458275"
         d="m 44.16697,33.74529 c -0.150818,-0.19231 -0.146534,-0.1966 0.04578,-0.04578 0.201975,0.158402 0.266207,0.257972 0.166409,0.257972 -0.02516,0 -0.120664,-0.09549 -0.212191,-0.212191 z"
         id="path344" /><path
         style="fill:#a39aa4;stroke-width:0.458275"
         d="m 28.177177,33.911704 c 0,-0.02516 0.09549,-0.120664 0.212196,-0.212191 0.19231,-0.150823 0.1966,-0.146533 0.04578,0.04578 -0.158398,0.201975 -0.257972,0.266207 -0.257972,0.166409 z"
         id="path343" /><path
         style="fill:#a39aa4;stroke-width:0.458275"
         d="m 22.720844,33.911704 c 0,-0.02516 0.09548,-0.120664 0.21219,-0.212191 0.192311,-0.150823 0.1966,-0.146533 0.04578,0.04578 -0.158398,0.201975 -0.257968,0.266207 -0.257968,0.166409 z"
         id="path342" /><path
         style="fill:#a39aa4;stroke-width:0.458275"
         d="m 26.68914,33.991224 c 0.215247,-0.02676 0.597192,-0.02722 0.848762,-9.17e-4 0.25157,0.02626 0.07546,0.04816 -0.391362,0.0487 -0.466822,4.58e-4 -0.672652,-0.02094 -0.4574,-0.04772 z"
         id="path341" /><path
         style="fill:#a39aa4;stroke-width:0.458275"
         d="m 21.232801,33.991224 c 0.215252,-0.02676 0.597192,-0.02722 0.848763,-9.17e-4 0.25157,0.02626 0.07545,0.04816 -0.391363,0.0487 -0.466822,4.58e-4 -0.672651,-0.02094 -0.4574,-0.04772 z"
         id="path340" /><path
         style="fill:#a39aa4;stroke-width:0.458275"
         d="m 15.961047,33.995348 c 0.116704,-0.03048 0.307677,-0.03048 0.424381,0 0.116705,0.03052 0.02122,0.05545 -0.21219,0.05545 -0.233414,0 -0.3289,-0.02498 -0.212191,-0.05545 z"
         id="path339" /><path
         style="fill:#a39aa4;stroke-width:0.458275"
         d="m 11.595976,33.995348 c 0.116705,-0.03048 0.307677,-0.03048 0.424381,0 0.116705,0.03052 0.02122,0.05545 -0.21219,0.05545 -0.233413,0 -0.3289,-0.02498 -0.212191,-0.05545 z"
         id="path338" /><path
         style="fill:#a39aa4;stroke-width:0.458275"
         d="m 46.99038,33.957678 c 0,-0.166721 0.02754,-0.234926 0.06116,-0.151565 0.03364,0.08336 0.03364,0.21977 0,0.30313 -0.03364,0.08336 -0.06116,0.01517 -0.06116,-0.151565 z"
         id="path337" /><path
         style="fill:#a39aa4;stroke-width:0.458275"
         d="m 40.643398,34.117355 c 0.08753,-0.03501 0.192109,-0.03071 0.2324,0.0096 0.04028,0.04028 -0.03135,0.06895 -0.159145,0.06368 -0.141249,-0.0058 -0.169983,-0.03455 -0.07326,-0.07326 z"
         id="path336" /><path
         style="fill:#a39aa4;stroke-width:0.458275"
         d="m 39.309625,34.117355 c 0.08753,-0.03501 0.192109,-0.03071 0.2324,0.0096 0.04028,0.04028 -0.03135,0.06895 -0.159145,0.06368 -0.14125,-0.0058 -0.169983,-0.03455 -0.07326,-0.07326 z"
         id="path335" /><path
         style="fill:#a39aa4;stroke-width:0.458275"
         d="m 47.198272,34.472999 c -0.150823,-0.192315 -0.146533,-0.1966 0.04578,-0.04578 0.201975,0.158399 0.266207,0.257968 0.166413,0.257968 -0.02516,0 -0.120664,-0.09549 -0.21219,-0.212191 z"
         id="path334" /><path
         style="fill:#847884;stroke-width:0.458275"
         d="m 11.656602,22.843465 c 0.08336,-0.03364 0.219765,-0.03364 0.30313,0 0.08336,0.03364 0.01517,0.06116 -0.151565,0.06116 -0.166725,0 -0.234926,-0.0275 -0.151565,-0.06116 z"
         id="path493" /><path
         style="fill:#847884;stroke-width:0.458275"
         d="m 40.029557,26.83951 c 0.150053,-0.02892 0.395587,-0.02892 0.545636,0 0.150048,0.02892 0.02727,0.05255 -0.272816,0.05255 -0.300102,0 -0.422869,-0.02365 -0.27282,-0.05255 z"
         id="path492" /><path
         style="fill:#847884;stroke-width:0.458275"
         d="m 33.66614,26.840885 c 0.117974,-0.03075 0.281661,-0.02873 0.363756,0.0046 0.08209,0.03322 -0.01443,0.05837 -0.2145,0.05589 -0.200064,-0.0023 -0.267234,-0.02965 -0.149256,-0.06039 z"
         id="path491" /><path
         style="fill:#847884;stroke-width:0.458275"
         d="m 14.687899,26.844551 c 0.08336,-0.03364 0.219771,-0.03364 0.303131,0 0.08336,0.03364 0.01517,0.06116 -0.151566,0.06116 -0.16672,0 -0.234925,-0.0275 -0.151565,-0.06116 z"
         id="path490" /><path
         style="fill:#847884;stroke-width:0.458275"
         d="m 32.117867,27.531116 c 0.120705,-0.133376 0.246745,-0.242505 0.280089,-0.242505 0.03336,0 -0.03813,0.109129 -0.158834,0.242505 -0.120705,0.133376 -0.246744,0.242501 -0.280093,0.242501 -0.03336,0 0.03813,-0.109125 0.158838,-0.242501 z"
         id="path489" /><path
         style="fill:#847884;stroke-width:0.458275"
         d="m 35.443121,27.561408 -0.293952,-0.333446 0.333441,0.293956 c 0.311655,0.274741 0.389048,0.372931 0.293952,0.372931 -0.02172,0 -0.171766,-0.150048 -0.333441,-0.333441 z"
         id="path488" /><path
         style="fill:#847884;stroke-width:0.458275"
         d="m 45.743249,28.046414 c -0.150823,-0.19231 -0.146534,-0.1966 0.04578,-0.04578 0.116705,0.09153 0.212191,0.187013 0.212191,0.21219 0,0.09979 -0.09957,0.03556 -0.257968,-0.166409 z"
         id="path487" /><path
         style="fill:#847884;stroke-width:0.458275"
         d="m 32.875694,28.784563 c 0.08336,-0.03364 0.21977,-0.03364 0.30313,0 0.08336,0.03364 0.01517,0.06116 -0.151565,0.06116 -0.16672,0 -0.234925,-0.0275 -0.151565,-0.06116 z"
         id="path486" /><path
         style="fill:#847884;stroke-width:0.458275"
         d="m 13.839137,28.784563 c 0.08336,-0.03364 0.219766,-0.03364 0.303131,0 0.08336,0.03364 0.01517,0.06116 -0.151566,0.06116 -0.166725,0 -0.234925,-0.0275 -0.151565,-0.06116 z"
         id="path485" /><path
         style="fill:#847884;stroke-width:0.458275"
         d="m 42.348191,30.471455 c -0.150819,-0.192315 -0.146529,-0.1966 0.04578,-0.04578 0.201976,0.158399 0.266208,0.257968 0.166409,0.257968 -0.02516,0 -0.120664,-0.09548 -0.21219,-0.21219 z"
         id="path484" /><path
         style="fill:#847884;stroke-width:0.458275"
         d="m 32.16303,31.805228 c -0.150823,-0.192315 -0.146533,-0.196604 0.04578,-0.04578 0.116704,0.09152 0.21219,0.187008 0.21219,0.21219 0,0.09979 -0.09957,0.03556 -0.257967,-0.166413 z"
         id="path483" /><path
         style="fill:#847884;stroke-width:0.458275"
         d="m 45.743249,32.168984 c -0.150823,-0.192315 -0.146534,-0.196604 0.04578,-0.04578 0.201976,0.158399 0.266208,0.257968 0.166414,0.257968 -0.02516,0 -0.120664,-0.09549 -0.212191,-0.21219 z"
         id="path482" /><path
         style="fill:#847884;stroke-width:0.458275"
         d="m 17.313866,31.532408 c 0,-1.10036 0.01838,-1.55051 0.04083,-1.000328 0.02246,0.550183 0.02246,1.450478 0,2.00066 -0.02246,0.550178 -0.04083,0.100032 -0.04083,-1.000332 z"
         id="path481" /><path
         style="fill:#847884;stroke-width:0.458275"
         d="m 40.279642,34.11713 c 0.08753,-0.03501 0.192109,-0.0307 0.2324,0.0096 0.04028,0.04028 -0.03135,0.06895 -0.159145,0.06368 -0.141249,-0.0058 -0.169983,-0.03455 -0.07325,-0.07326 z"
         id="path480" /><path
         style="fill:#847884;stroke-width:0.458275"
         d="m 39.665801,34.11988 c 0.08337,-0.03364 0.21977,-0.03364 0.30313,0 0.08336,0.03364 0.01517,0.06116 -0.151565,0.06116 -0.16672,0 -0.234926,-0.0275 -0.151565,-0.06116 z"
         id="path479" /><path
         style="fill:#847884;stroke-width:0.458275"
         d="m 33.724456,34.11988 c 0.08336,-0.03364 0.21977,-0.03364 0.303131,0 0.08336,0.03364 0.01517,0.06116 -0.151566,0.06116 -0.16672,0 -0.234925,-0.0275 -0.151565,-0.06116 z"
         id="path169" /></g><path
       style="display:inline;fill:#796c78;stroke-width:0.458275"
       d="m 29.965651,36.992105 -0.333445,-0.263233 v -4.640604 c 0,-4.38435 0.01256,-4.651978 0.227465,-4.846461 0.620701,-0.561726 1.83382,-0.271652 1.83382,0.438491 v 0.385249 l 0.454696,-0.434651 c 1.296124,-1.239002 3.055235,-0.877872 3.944747,0.809818 0.315458,0.598535 0.443706,2.708723 0.212841,3.502157 -0.608892,2.092636 -2.821512,2.8662 -4.043684,1.413729 l -0.309052,-0.367285 -0.03882,1.874588 c -0.04468,2.157615 -0.08359,2.245814 -1.03011,2.33581 -0.471373,0.04482 -0.649766,0.0046 -0.918443,-0.207608 z m 3.910373,-5.166525 c 0.475135,-0.467802 0.455599,-2.196242 -0.03034,-2.682156 -0.925147,-0.925143 -1.909717,-0.24838 -1.909717,1.312683 0,1.65134 0.963177,2.331255 1.940028,1.369473 z m 13.485945,2.67086 c -0.454747,-0.31852 -0.353007,-0.582225 2.436327,-6.314853 2.703504,-5.556228 2.706148,-5.560999 3.103267,-5.599806 0.466473,-0.0456 0.859781,0.249407 0.859781,0.644867 0,0.35294 -5.2661,11.108222 -5.535287,11.305056 -0.279133,0.204107 -0.537381,0.193566 -0.864088,-0.03524 z m 3.615303,-0.07661 c -0.135975,-0.145951 -0.247227,-0.331827 -0.247227,-0.413057 0,-0.170134 5.277056,-11.048871 5.475676,-11.288196 0.308636,-0.371881 1.314433,-9.17e-4 1.314433,0.484763 0,0.206004 -5.278724,10.991431 -5.515723,11.269664 -0.248003,0.291151 -0.729598,0.266221 -1.027159,-0.05317 z M 39.374863,34.059933 c -1.62546,-0.185052 -2.484673,-1.040354 -1.852482,-1.844054 0.311471,-0.395972 0.500612,-0.39836 1.254582,-0.01586 0.984154,0.499295 2.252925,0.368146 2.252925,-0.232877 0,-0.281143 -0.413502,-0.526691 -1.309499,-0.777624 -2.178321,-0.610056 -2.923627,-2.169649 -1.68341,-3.522637 1.032218,-1.126074 4.690436,-0.92875 4.690436,0.253 0,0.816302 -0.524311,1.123695 -1.368573,0.802361 -0.789298,-0.300408 -1.473985,-0.288401 -1.793842,0.03144 -0.362791,0.362789 -0.07303,0.636883 0.943115,0.892129 1.834217,0.460741 2.615765,1.305071 2.393531,2.585794 -0.241477,1.391626 -1.523707,2.056341 -3.526783,1.828298 z m 4.968658,-0.271262 c -0.725708,-0.624226 -0.254099,-1.892273 0.70377,-1.892273 0.243213,0 0.485434,0.11911 0.720751,0.354429 0.972256,0.972254 -0.382173,2.434431 -1.424521,1.537844 z m -33.357138,-0.01975 -0.269479,-0.188754 v -5.13946 -5.139455 l 0.269479,-0.188754 c 0.148216,-0.103813 0.518021,-0.188755 0.821788,-0.188755 1.07889,0 1.091268,0.03135 1.091268,2.762671 v 2.385166 l 0.358747,-0.435224 c 1.019273,-1.236559 2.82957,-0.871676 3.672878,0.740307 0.475342,0.908608 0.524698,5.069545 0.06396,5.392258 -0.470131,0.329289 -1.538773,0.198094 -1.82026,-0.223469 -0.04899,-0.07338 -0.08992,-0.968216 -0.09093,-1.988529 -0.0023,-2.435865 -0.383444,-3.136467 -1.462599,-2.689466 -0.624863,0.25883 -0.721577,0.618278 -0.723653,2.689466 -9.17e-4,1.020313 -0.04193,1.91515 -0.09094,1.988529 -0.281486,0.421563 -1.350129,0.552758 -1.820259,0.223469 z m 9.146361,0.01187 c -1.352278,-0.482156 -1.413215,-0.71978 -1.413215,-5.511207 0,-4.564325 -0.047,-4.375841 1.091268,-4.375841 0.985218,0 1.091267,0.165639 1.091267,1.704404 v 1.326894 h 0.955169 c 1.080755,0 1.27587,0.120526 1.27587,0.788137 0,0.667611 -0.195115,0.788137 -1.27587,0.788137 h -0.955169 v 1.673277 c 0,1.909724 0.02411,1.964282 0.867309,1.964282 0.991895,0 1.433801,0.382004 1.332536,1.151897 -0.085,0.646168 -1.757197,0.922146 -2.969165,0.49002 z m 5.459808,0.0014 c -1.339195,-0.477619 -1.410805,-0.7585 -1.414022,-5.546605 -0.0032,-4.525636 -0.04917,-4.341634 1.088605,-4.341634 0.985214,0 1.091268,0.165639 1.091268,1.704403 v 1.326894 h 0.963143 c 1.033341,0 1.340647,0.180661 1.340647,0.788137 0,0.607481 -0.30731,0.788137 -1.340647,0.788137 H 26.358403 V 30.1748 c 0,1.926323 0.01783,1.964282 0.923726,1.964282 1.235208,0 1.753742,0.798109 1.0438,1.606589 -0.234114,0.266606 -2.021282,0.290487 -2.733377,0.03652 z m 18.750969,-4.115902 c -0.725708,-0.62423 -0.254099,-1.892278 0.70377,-1.892278 0.243213,0 0.485434,0.119115 0.720751,0.35443 0.972256,0.972259 -0.382173,2.434436 -1.424521,1.537848 z"
       id="path119"
       inkscape:label="https" /><path
       style="display:inline;fill:#000000;fill-opacity:0.329241;stroke:#8699e8;stroke-width:0.347844;stroke-opacity:0.669643"
       d="m 22.418996,56.35693 c 2.300377,-0.347 3.63885,-1.52422 6.678142,-5.87357 0.793833,-1.13601 2.957434,-4.50848 3.029984,-4.72293 0.0127,-0.0376 0.592737,0.21701 1.288951,0.56572 12.005075,6.01303 26.127035,-2.68496 26.136095,-16.097736 0.01,-14.465993 -16.0729,-23.0608836 -28.101109,-15.017781 -7.540952,5.042534 -10.134103,14.952286 -6.047894,23.112077 0.341096,0.68114 0.611316,1.24407 0.600487,1.25095 -0.01082,0.007 -0.49596,0.29709 -1.078073,0.64492 -3.482749,2.081 -7.424533,5.02825 -8.336198,6.23292 -3.350053,4.42673 0.359897,10.73053 5.829615,9.90543 z M 39.686048,41.40751 c -9.258687,-1.5979 -12.76879,-12.993166 -5.986736,-19.435457 6.002226,-5.701525 15.910336,-3.262838 18.587736,4.575011 2.7441,8.033128 -4.26506,16.299086 -12.601,14.860446 z"
       id="path29"
       inkscape:label="search" /></g></svg>
